<?xml version="1.0" encoding="UTF-8"?>
<!-- Generator: Adobe Illustrator 15.0.0, SVG Export Plug-In . SVG Version: 6.00 Build 0)  -->
<!DOCTYPE svg PUBLIC "-//W3C//DTD SVG 1.1//EN" "http://www.w3.org/Graphics/SVG/1.1/DTD/svg11.dtd">
<svg version="1.1" id="Слой_1" xmlns="http://www.w3.org/2000/svg" xmlns:xlink="http://www.w3.org/1999/xlink" x="0px" y="0px" width="20px" height="20px" viewBox="0 0 20 20" enable-background="new 0 0 20 20" xml:space="preserve">
<path fill="#FFFFFF" d="M6.13,16.995H3.226V7.651H6.13V16.995z M4.678,6.372c-0.93,0-1.684-0.753-1.684-1.682  c0-0.929,0.754-1.685,1.684-1.685c0.929,0,1.684,0.755,1.684,1.685C6.362,5.619,5.607,6.372,4.678,6.372z M17.008,16.995h-2.903  V12.45c0-1.083-0.018-2.478-1.508-2.478c-1.513,0-1.744,1.181-1.744,2.399v4.623H7.951V7.651h2.785v1.276h0.04  c0.388-0.735,1.334-1.508,2.747-1.508c2.94,0,3.484,1.934,3.484,4.45V16.995z"/>
</svg>