<?xml version="1.0" encoding="UTF-8"?>
<!-- Generator: Adobe Illustrator 15.0.0, SVG Export Plug-In . SVG Version: 6.00 Build 0)  -->
<!DOCTYPE svg PUBLIC "-//W3C//DTD SVG 1.1//EN" "http://www.w3.org/Graphics/SVG/1.1/DTD/svg11.dtd">
<svg version="1.1" id="Слой_1" xmlns="http://www.w3.org/2000/svg" xmlns:xlink="http://www.w3.org/1999/xlink" x="0px" y="0px" width="117.65px" height="35px" viewBox="0 0 117.65 35" enable-background="new 0 0 117.65 35" xml:space="preserve">
<g id="Слой_2">
</g>
<g>
	<path fill="#41485E" d="M44.166,26.979V12.03c0-0.299,0.026-0.597,0.082-0.892c0.054-0.296,0.189-0.669,0.415-1.123   c0.222-0.454,0.521-0.854,0.902-1.198c0.381-0.345,0.952-0.643,1.713-0.893c0.764-0.25,1.646-0.375,2.655-0.375   c0.513,0,1.02,0.046,1.515,0.137c0.493,0.089,1.031,0.294,1.617,0.611c0.585,0.317,1.092,0.731,1.521,1.24   c0.422,0.508,0.78,1.223,1.065,2.145c0.286,0.921,0.428,1.984,0.428,3.191c0,1.381-0.188,2.56-0.564,3.533   c-0.377,0.975-0.896,1.699-1.557,2.172c-0.662,0.473-1.336,0.811-2.02,1.016c-0.685,0.205-1.44,0.307-2.267,0.307   c-1.026,0-2.012-0.139-2.959-0.408v5.486H44.166L44.166,26.979z M46.711,19.055c0.964,0.373,1.951,0.559,2.959,0.559   c0.576,0,1.062-0.055,1.466-0.164c0.406-0.109,0.805-0.316,1.195-0.625s0.689-0.793,0.896-1.449c0.204-0.658,0.305-1.492,0.305-2.5   c0-1.08-0.101-1.977-0.305-2.688c-0.207-0.713-0.501-1.231-0.883-1.56c-0.383-0.325-0.76-0.549-1.132-0.666   c-0.372-0.118-0.801-0.178-1.28-0.178c-2.147,0-3.222,0.694-3.222,2.084V19.055z"/>
	<path fill="#41485E" d="M58.241,21.682V8.939c2.322-0.925,4.585-1.39,6.779-1.39v2.342c-1.386,0.02-2.796,0.214-4.231,0.586v11.205   H58.241L58.241,21.682z"/>
	<path fill="#41485E" d="M66.682,18.332c-0.393-0.985-0.588-2.185-0.588-3.591c0-1.41,0.195-2.607,0.588-3.593   c0.394-0.987,0.923-1.728,1.601-2.217c0.672-0.493,1.365-0.843,2.071-1.046c0.706-0.204,1.481-0.307,2.317-0.307   c0.835,0,1.611,0.103,2.316,0.307c0.705,0.205,1.4,0.554,2.072,1.046c0.674,0.489,1.207,1.229,1.6,2.217   c0.393,0.985,0.588,2.183,0.588,3.593c0,1.407-0.195,2.606-0.588,3.591c-0.394,0.986-0.926,1.727-1.6,2.217   c-0.672,0.492-1.367,0.842-2.072,1.047s-1.481,0.307-2.316,0.307s-1.611-0.102-2.317-0.307s-1.399-0.555-2.071-1.047   C67.605,20.059,67.075,19.318,66.682,18.332 M69.001,12.174c-0.205,0.671-0.308,1.525-0.308,2.564s0.103,1.895,0.308,2.567   c0.204,0.671,0.51,1.17,0.919,1.493c0.404,0.326,0.816,0.543,1.233,0.652c0.417,0.105,0.922,0.16,1.517,0.16   s1.098-0.055,1.516-0.16c0.417-0.109,0.829-0.326,1.239-0.652c0.404-0.322,0.708-0.822,0.915-1.493   c0.204-0.673,0.306-1.528,0.306-2.567s-0.102-1.895-0.306-2.564c-0.207-0.674-0.511-1.172-0.915-1.497   c-0.41-0.324-0.821-0.542-1.239-0.651c-0.417-0.105-0.921-0.162-1.516-0.162s-1.1,0.055-1.517,0.162   c-0.417,0.109-0.829,0.327-1.233,0.651C69.512,11.002,69.206,11.5,69.001,12.174"/>
	<path fill="#41485E" d="M81.207,18.332c-0.394-0.985-0.588-2.185-0.588-3.591c0-1.41,0.194-2.607,0.588-3.593   c0.392-0.987,0.925-1.728,1.597-2.217c0.676-0.493,1.366-0.843,2.074-1.046c0.708-0.204,1.479-0.307,2.316-0.307   c0.839,0,1.608,0.103,2.316,0.307c0.706,0.205,1.398,0.554,2.074,1.046c0.672,0.489,1.203,1.229,1.598,2.217   c0.394,0.985,0.588,2.183,0.588,3.593c0,1.407-0.194,2.606-0.588,3.591c-0.395,0.986-0.926,1.727-1.598,2.217   c-0.676,0.492-1.368,0.842-2.074,1.047c-0.708,0.205-1.479,0.307-2.316,0.307c-0.837,0-1.608-0.102-2.316-0.307   s-1.398-0.555-2.074-1.047C82.132,20.059,81.599,19.318,81.207,18.332 M83.526,12.174c-0.205,0.671-0.307,1.525-0.307,2.564   s0.102,1.895,0.307,2.567c0.204,0.671,0.509,1.17,0.917,1.493c0.408,0.326,0.819,0.543,1.239,0.652   c0.413,0.105,0.919,0.16,1.514,0.16s1.101-0.055,1.514-0.16c0.42-0.109,0.831-0.326,1.239-0.652   c0.407-0.322,0.712-0.822,0.917-1.493c0.204-0.673,0.307-1.528,0.307-2.567s-0.103-1.895-0.307-2.564   c-0.205-0.674-0.509-1.172-0.917-1.497c-0.408-0.324-0.819-0.542-1.239-0.651c-0.413-0.105-0.919-0.162-1.514-0.162   s-1.101,0.055-1.514,0.162c-0.419,0.109-0.831,0.327-1.239,0.651C84.034,11.002,83.73,11.5,83.526,12.174"/>
	<path fill="#41485E" d="M94.633,10V7.768h1.947V7.101c0-3.458,1.543-5.188,4.629-5.188c0.517,0,1.021,0.063,1.511,0.191V4.31   c-0.372-0.073-0.717-0.108-1.035-0.108c-0.426,0-0.751,0.018-0.974,0.053c-0.22,0.037-0.479,0.14-0.771,0.307   c-0.29,0.168-0.499,0.46-0.626,0.879c-0.127,0.417-0.189,0.971-0.189,1.661v0.667h3.594V10h-3.594v11.681H96.58V10H94.633z"/>
	<path fill="#41485E" d="M104.758,7.768h2.736l3.743,10.421l3.677-10.421h2.735l-5.718,15.398c-0.989,2.668-2.428,4.002-4.314,4.002   h-0.015c-0.618,0-1.267-0.07-1.946-0.221v-2.299c0.554,0.146,1.075,0.225,1.564,0.23c1.153,0,2.083-1.068,2.791-3.211   L104.758,7.768z"/>
</g>
<g>
	<g>
		<path fill="#33D79B" d="M32.984,1.602L32.984,1.602v21.852c0,0.412-0.413,1.029-0.618,1.236l-14.431,8.453l0,0l0,0    c0,0-0.206,0-0.412,0s-0.413,0-0.413,0l0,0l0,0L2.68,24.689c-0.207-0.207-0.619-0.824-0.619-1.236V1.602h14.02h3.299H32.984"/>
	</g>
	<g>
		<path fill="#14C779" d="M18.966-0.049c-0.825,0-2.474,0-3.299,0H1.649C0.824-0.049,0,0.775,0,1.601v21.853    c0,1.028,0.619,2.268,1.442,2.68l14.431,8.453c0.825,0.617,2.062,0.617,2.681,0l14.43-8.453c0.824-0.619,1.443-1.65,1.443-2.68    V1.601c0-1.031-0.825-1.649-1.649-1.649H18.966z"/>
	</g>
	<path opacity="0.08" fill="#231F20" enable-background="new    " d="M17.317-0.049c-0.618,0-1.236,0-1.648,0H1.649   C0.824-0.049,0,0.775,0,1.601v21.853c0,1.028,0.619,2.268,1.442,2.68l14.431,8.453c0.412,0.205,0.825,0.412,1.442,0.412   L17.317-0.049L17.317-0.049z"/>
	<path fill="#FFFFFF" d="M27.831,7.58H17.317l0,0l0,0H6.803c-0.412,0-0.824,0.412-0.824,1.03v0.413c0,0,0,9.896,0,10.309   s0,1.237,0.824,1.647c0.825,0.619,10.514,6.392,10.514,6.392l0,0l0,0c0,0,9.689-5.771,10.515-6.392   c0.823-0.617,0.823-1.235,0.823-1.647c0-0.207,0-10.309,0-10.309V8.61C28.655,7.992,28.449,7.58,27.831,7.58z M27.006,19.33   l-9.689,5.773l0,0l0,0L7.628,19.33v-7.422l9.688,5.773l0,0l0,0l0,0l0,0l0,0l0,0l0,0l0,0l9.689-5.773V19.33L27.006,19.33   L27.006,19.33z M27.006,9.641l-9.689,5.771l0,0l0,0L7.628,9.641l0,0H27.006L27.006,9.641L27.006,9.641z"/>
	<path fill="#E6E7E8" d="M6.803,7.58c-0.412,0-0.824,0.412-0.824,1.03v0.413c0,0,0,9.896,0,10.309s0,1.237,0.824,1.647   c0.825,0.619,10.514,6.392,10.514,6.392l0,0v-2.267l0,0l-9.688-5.772V11.91l9.688,5.772l0,0v-2.269l0,0L7.628,9.643h9.688V7.58l0,0   H6.803L6.803,7.58z"/>
</g>
</svg>