<?xml version="1.0" encoding="UTF-8"?>
<!-- Generator: Adobe Illustrator 15.1.0, SVG Export Plug-In . SVG Version: 6.00 Build 0)  -->
<!DOCTYPE svg PUBLIC "-//W3C//DTD SVG 1.1//EN" "http://www.w3.org/Graphics/SVG/1.1/DTD/svg11.dtd">
<svg version="1.1" id="Слой_1" xmlns="http://www.w3.org/2000/svg" xmlns:xlink="http://www.w3.org/1999/xlink" x="0px" y="0px" width="20px" height="20px" viewBox="0 0 20 20" enable-background="new 0 0 20 20" xml:space="preserve">
<path id="twitter-icon" fill="#FFFFFF" d="M16.846,5.754c-0.503,0.224-1.044,0.375-1.612,0.442c0.582-0.347,1.025-0.898,1.235-1.555  c-0.542,0.322-1.146,0.557-1.784,0.682c-0.512-0.546-1.24-0.887-2.05-0.887c-1.813,0-3.146,1.692-2.735,3.449  C7.563,7.769,5.493,6.651,4.108,4.952c-0.736,1.261-0.382,2.914,0.87,3.75C4.516,8.687,4.084,8.561,3.705,8.351  c-0.03,1.3,0.902,2.518,2.253,2.79c-0.396,0.105-0.829,0.133-1.269,0.049c0.358,1.113,1.395,1.927,2.625,1.949  c-1.182,0.926-2.669,1.338-4.159,1.163c1.243,0.798,2.719,1.263,4.306,1.263c5.214,0,8.163-4.405,7.985-8.355  C15.993,6.813,16.47,6.317,16.846,5.754z"/>
</svg>